# xmcd
#
# Track frame offsets:
#	150
#	16397
#	30293
#	47327
#	64229
#	85759
#	104073
#	119532
#	138655
#	177150
#	195207
#	215430
#
# Disc length: 3092 seconds
#
# Revision: 1
# Processed by: cddbd v1.5.2PL0 Copyright (c) Steve Scherf et al.
# Submitted via: audiograbber 1.83.01
#
DISCID=9e0c120c
DTITLE=The Parlor Mob - And You Were A Crow
DYEAR=2010
DGENRE=hard rock
TTITLE0=Hard Times
TTITLE1=Dead Wrong
TTITLE2=Everything You're Breathing For
TTITLE3=The Kids
TTITLE4=When I Was An Orphan
TTITLE5=Angry Young Girl
TTITLE6=Carnival Of Crows
TTITLE7=Real Hard Headed
TTITLE8=Tide Of Tears
TTITLE9=My Favorite Heart To Break
TTITLE10=Bullet
TTITLE11=Can't Keep No Good Boy Down
EXTD=
EXTT0=
EXTT1=
EXTT2=
EXTT3=
EXTT4=
EXTT5=
EXTT6=
EXTT7=
EXTT8=
EXTT9=
EXTT10=
EXTT11=
PLAYORDER=
